# xmcd
#
# Track frame offsets:
# 150
# 21490
# 39137
# 56208
# 75769
# 95438
# 118154
# 134841
# 152725
# 172465
# 191840
# 210415
# 227313
# 248595
# 268111
#
# Disc length: 3706 seconds
#
# Revision: 1
# Processed by: cddbd v1.5.2PL0 Copyright (c) Steve Scherf et al.
# Submitted via: CedeCatalogueitor 2.6.0.6 http://personales.ya.com/cdcatalogueitor
#
DISCID=cd0e780f
DTITLE=MANOLO GARCIA - PARA QUE NO SE DUERMAN MIS SENTIDOS
DYEAR=2004
DGENRE=
TTITLE0=Una Tarde De Sol
TTITLE1=Para Que No Se Duerman Mis Sentidos
TTITLE2=Sobre Tus Pasos
TTITLE3=Malva
TTITLE4=Niña Candela
TTITLE5=Solo Un Poco
TTITLE6=En Una Playa Calma
TTITLE7=Fragua De Los Cuatro Vientos
TTITLE8=Serena Barca
TTITLE9=Vive En Mi Un Recuerdo
TTITLE10=Ardió Mi Memoria
TTITLE11=En Un Estanque De Libelulas
TTITLE12=Si Te Vienes Conmigo
TTITLE13=Eramos
TTITLE14=De Libelulasla Atunara
EXTD=
EXTT0=
EXTT1=
EXTT2=
EXTT3=
EXTT4=
EXTT5=
EXTT6=
EXTT7=
EXTT8=
EXTT9=
EXTT10=
EXTT11=
EXTT12=
EXTT13=
EXTT14=
PLAYORDER=
